<svg width="239" height="127" viewBox="0 0 239 127" fill="currentcolor" xmlns="http://www.w3.org/2000/svg">
<path d="M59.9028 38.1964C59.466 37.9349 59.051 37.7607 58.658 37.6738C58.5923 37.412 58.5265 37.1501 58.3735 36.9101C57.4341 36.1253 56.2997 36.7813 55.0119 36.8263C53.8986 36.8274 52.785 36.4575 51.6502 36.7424C51.4756 36.7862 49.6206 37.1592 42.9164 55.5455C41.196 59.4108 39.3451 63.8657 37.5159 68.0368C36.841 69.7837 35.8604 71.4218 35.1855 73.1688C34.4887 74.8285 34.1195 76.6842 33.0078 78.1697C33.414 69.8091 36.3319 62.952 35.8644 54.0684C35.6025 54.1342 35.5149 53.785 35.4491 53.5231C34.5531 52.5418 33.2665 53.7 32.437 53.7227C31.6076 53.7454 30.5593 53.2662 29.3153 53.4858C27.8314 53.8584 25.2188 60.4532 23.9767 62.5281C22.7346 64.6031 21.318 66.7219 20.3816 68.9057C19.2706 71.1333 18.6838 73.6005 17.8567 75.8496C17.5302 76.7668 17.0507 77.4439 16.6588 78.4703C16.5281 78.6887 16.7249 79.1032 16.5288 79.4308C16.42 79.7365 16.0055 79.9334 15.8966 80.2391C15.6571 80.7632 15.7459 82.2256 14.7853 82.0957C14.8065 81.4408 15.1552 80.982 15.2856 80.3925C15.3071 80.1088 15.1975 79.6723 15.3064 79.3666C15.3717 79.2574 15.7863 79.0605 15.8516 78.9513C15.9386 78.5583 15.654 77.7946 15.7409 77.4016C15.8059 76.9213 16.307 75.9604 16.4154 75.2836C16.4589 75.0871 16.1309 74.5199 16.1962 74.4107C16.2616 74.3015 16.7419 74.3665 16.8073 74.2573C16.8938 73.4932 16.5439 72.8387 16.8923 72.0089C16.9357 71.8124 17.3503 71.6155 17.3283 71.5282C17.4587 70.9387 17.0869 70.1969 17.1519 69.7166C17.1953 69.5201 17.4787 69.1706 17.6095 68.9522C18.1094 66.878 18.3247 64.0401 18.8243 61.5948C18.8677 61.3983 18.8235 60.8527 18.8451 60.5689C19.0193 60.154 19.4988 59.4768 19.5415 58.5381C19.628 57.7741 19.3219 57.2941 19.4304 56.6174C19.43 56.2463 19.9314 55.6564 19.9091 55.198C20.0395 54.6085 19.7769 53.9321 19.8199 53.3646C19.8411 52.7097 20.4737 52.2725 19.9491 51.6618C17.0678 51.643 13.968 51.4933 11.4801 51.9325C10.6767 56.1243 9.8734 60.3161 9.26694 64.9225C9.22349 65.119 8.87471 65.5778 8.80934 65.687C8.80972 66.0581 9.2031 66.516 9.11619 66.909C8.94275 68.0661 8.09253 69.1147 8.20288 70.2934C8.92312 70.2053 8.8993 68.2626 9.31459 68.8079C9.14154 70.336 9.09961 72.0169 9.3853 73.8938C8.25014 73.8077 9.4522 75.2689 8.53546 75.3135C8.75692 78.4129 7.36104 79.5057 8.01896 82.4955C7.97741 84.5474 7.82627 86.1629 7.4348 87.5603C7.41441 88.9573 8.04888 90.3755 7.0237 91.0969C7.72354 92.4058 7.22172 92.6246 6.83025 94.022C6.63451 94.7207 6.59144 95.2883 6.32995 95.7252C6.54875 96.227 6.02691 98.2139 5.80887 98.4542C5.89807 100.288 5.19899 99.7209 5.2878 101.183L4.80828 101.86C3.60889 102.997 4.81209 105.571 3.59079 106.62C2.95822 107.057 2.39102 107.385 1.32162 107.561C1.86842 108.63 1.32314 109.046 1.65153 109.984C1.34582 109.875 0.974743 109.875 0.451 110.007C0.78015 111.687 1.95914 111.948 3.74955 112.426C5.12504 112.731 6.78355 112.314 8.02639 110.981C8.39709 110.61 9.59533 108.36 9.87836 107.64C10.1398 107.203 9.59343 106.505 10.7278 105.849C10.9009 104.321 11.1831 102.858 11.7492 101.417C11.9234 101.002 12.2287 100.74 12.3156 100.347C12.6421 99.4295 12.5975 98.5127 12.924 97.5956C13.1851 96.7877 13.9911 95.1934 13.7496 93.8621C14.6879 93.5337 14.5122 92.4643 14.7733 91.6564C15.0563 90.9358 15.4486 90.2806 15.7316 89.5599C15.9058 89.145 15.8616 88.5994 16.0358 88.1845C16.4061 87.4419 17.5401 86.4148 17.364 84.9743C17.9312 84.6463 18.1708 84.1222 18.5414 83.7507C19.3248 81.327 20.3919 78.9248 21.3936 76.6318C21.5025 76.3261 21.3275 75.9989 21.4144 75.6059C21.8282 74.6668 22.3946 73.5967 22.7426 72.3958C22.7861 72.1993 23.1568 71.8278 23.2002 71.6313C23.2437 71.4348 22.8503 70.9768 22.9811 70.7584C23.1114 70.1689 24.137 69.8186 23.7432 68.9895C24.5508 68.8796 24.4842 67.8755 24.833 67.4168C24.8984 67.3076 25.3787 67.3726 25.4441 67.2634C25.5748 67.0449 25.0718 66.1505 26.0978 66.1713C26.4919 67.3714 25.6629 67.7652 25.489 68.5512C25.4244 69.4025 26.1662 69.0307 26.3196 69.6417C25.9497 70.7553 25.5798 71.869 26.0835 73.5056C25.5386 74.2919 25.0387 76.3661 25.7816 77.1075C25.7812 76.7365 26.0654 77.1291 26.175 77.5655C25.87 78.1989 26.3942 78.4384 25.4347 79.4217C25.8296 81.364 24.4776 82.6314 25.7673 84.4418C24.6771 85.6435 26.3172 88.4795 25.9914 90.1388C25.1408 90.8163 25.4885 89.2443 24.7032 89.8127C24.7482 91.1005 25.4035 91.4927 25.6446 92.4529C27.9149 92.6252 29.2481 94.2391 31.255 92.9929C31.4949 92.8398 32.106 92.6864 32.324 92.446C32.542 92.2057 32.4759 91.5728 32.6939 91.3324C32.9993 91.0702 33.5668 91.1133 33.7629 90.7856C33.981 90.5453 33.6749 90.0654 33.8056 89.847C34.0018 89.5193 34.4601 89.497 34.5909 89.2786C35.3753 87.9681 35.1131 87.6628 35.6572 86.1343C35.8314 85.7194 36.2021 85.3479 36.3109 85.0422C36.4632 84.54 36.3098 83.929 36.4402 83.3395C36.5924 82.8372 37.3561 82.5527 36.7663 82.0513C38.0529 80.893 37.5923 78.6889 38.9882 77.596C38.8782 76.7885 39.2051 76.2424 39.0732 75.3476C39.9245 75.4122 39.4435 74.6051 40.0545 74.4517C39.7473 72.8585 41.4058 72.4421 40.9675 70.6963C41.8838 70.2806 41.6423 68.9493 42.5368 68.4463C42.208 67.137 43.1674 66.1537 43.6031 65.302C43.712 64.9963 43.5151 64.5817 43.6239 64.276C43.6893 64.1668 44.0823 64.2537 44.1476 64.1445C44.213 64.0353 43.9508 63.73 43.9942 63.5335C44.4518 62.769 45.4551 61.9604 45.0606 60.3891C45.8243 60.1046 45.9104 58.9694 46.368 58.205C46.5422 57.7901 46.9564 57.2221 46.7806 56.1527C47.4978 53.096 47.2383 55.3882 46.9564 57.2221C46.588 59.82 46.1976 62.3307 45.8511 65.0159C45.6777 66.173 45.2643 67.4831 45.8111 68.5521C45.8761 68.0718 46.073 68.4864 46.1607 68.8355C46.1629 71.062 45.9687 73.245 45.6434 75.2754C46.1671 75.1439 46.1456 75.4277 46.3206 75.7549C46.081 76.279 45.1212 76.8912 45.0562 77.3715C44.9039 77.8737 44.817 78.2667 44.752 78.747C44.7301 78.6597 45.2108 79.0958 45.1673 79.2923C45.1461 79.9471 44.1198 79.5553 44.4478 80.1225C44.7539 80.6024 44.2086 81.0177 44.2094 81.7598C44.2759 82.7639 44.6908 82.9381 44.5608 83.8986C44.322 85.1649 43.6691 86.9992 43.6052 88.5927C43.606 89.3349 43.8905 90.0985 43.8694 90.7534C43.8048 91.6048 42.6488 92.5446 42.4969 93.4179C42.4104 94.1819 42.6296 95.0548 42.565 95.9062C42.3485 97.6309 43.1791 98.7214 43.6174 100.467C43.3555 100.533 43.4432 100.882 43.509 101.144C42.3084 101.167 43.532 102.345 42.681 102.651C43.1848 104.288 43.2728 105.008 42.4661 105.86C43.2524 106.405 42.3145 107.104 42.3153 107.847C42.2507 108.698 42.4045 109.68 42.3837 110.706C42.3845 111.448 41.8834 112.409 42.6479 112.867C42.8221 112.452 43.0386 110.727 43.9126 111.621C44.0226 112.429 43.1063 112.844 42.8013 113.478C42.6925 113.783 42.8674 114.111 42.7586 114.416C42.6932 114.526 42.3006 114.81 42.2353 114.919C42.1483 115.312 42.804 116.075 41.9964 116.185C42.8486 116.992 42.0849 117.277 42.1076 118.106C42.1733 118.368 42.4575 118.76 42.3267 118.979C42.0014 121.009 40.7786 120.574 43.2896 121.335C43.225 122.187 42.9201 122.82 43.0739 123.802C43.7503 123.54 44.0563 124.019 44.4278 124.39C43.7741 125.482 45.4326 125.066 44.8223 125.961C46.1101 125.916 47.1369 126.679 48.3374 126.656C48.7958 126.634 49.1226 126.088 49.7337 125.934C49.9082 125.891 50.4543 126.218 50.9561 125.999C51.2833 125.824 51.4575 125.409 51.9374 125.103C53.2026 124.228 54.3812 124.118 55.3841 122.938C55.9509 122.239 56.2335 121.147 56.8657 120.339C56.9311 120.23 57.3241 120.317 57.3895 120.208C57.6075 119.967 57.759 118.723 58.2389 118.417C58.8496 117.892 59.3072 117.128 59.7863 116.08C60.0694 115.359 60.4397 114.616 60.4608 113.962C62.4235 112.17 62.6389 109.332 65.0165 107.714C64.7539 107.038 65.2338 106.732 65.1677 106.099C66.3024 105.814 66.279 104.242 66.9985 103.412C67.2165 103.172 67.5876 103.171 67.6964 102.865C68.2413 102.079 68.4805 101.184 68.9162 100.332C69.3738 99.5676 70.3117 98.8682 70.136 97.7988C71.0089 97.5796 71.0081 96.8374 71.2258 96.226C69.6991 97.5373 68.4348 99.1539 67.1704 100.77C66.8435 101.317 66.4294 101.884 66.0806 102.343C65.8625 102.584 65.5134 102.671 65.2954 102.912C64.772 103.414 64.1621 104.681 63.5518 105.576C63.1811 105.948 62.8104 106.319 62.2871 106.822C61.4369 107.871 60.2382 109.749 59.1046 111.147C58.9739 111.366 58.4282 111.41 58.2974 111.628C58.1886 111.934 58.407 112.065 58.189 112.305C57.971 112.545 57.7095 112.982 57.4695 113.135C56.75 113.965 56.0309 115.167 55.2026 116.303C53.6333 118.553 51.9982 120.541 49.7079 122.136C49.3149 122.049 48.9 121.875 48.6378 121.57L49.598 121.329C49.0938 119.321 49.2227 117.247 49.8756 115.413C49.7011 115.457 49.5484 115.588 49.4611 115.61C49.6345 114.453 48.2802 113.494 49.5676 113.078C49.5423 109.651 52.1599 107.88 51.2609 103.93C52.2426 103.405 51.7396 102.511 51.2797 101.049C51.7592 100.372 51.9565 101.157 52.3487 100.502C51.5151 96.4427 53.9846 99.256 52.7164 97.1618C52.4318 96.3981 51.7547 95.9186 51.8631 95.2418C54.5668 92.3359 51.1198 94.1293 51.3133 91.2042C51.5094 90.8765 52.12 90.352 52.0104 89.9156C52.0754 89.4353 52.2496 89.0204 52.5984 88.5616C52.4019 88.5182 52.2054 88.4747 52.1835 88.3874C50.8499 86.4024 53.7075 84.4786 53.3152 85.1339C53.0976 85.7453 53.381 85.3957 53.4898 85.09C53.4683 85.3738 53.2722 85.7014 52.9668 85.9637C54.9537 86.4855 52.9838 81.227 53.4833 78.7817C54.1378 78.4318 55.3364 76.5533 54.7031 76.2483C54.1148 77.2312 53.1338 78.4983 52.7419 79.5246C52.7635 79.2408 52.6977 78.9789 52.4574 78.7609C52.1071 77.7353 51.8694 80.1149 51.3226 79.0458C51.3215 77.9326 52.3247 77.1239 53.2192 76.621C53.7656 77.3189 52.064 78.3029 53.1769 77.9307C53.5902 76.6206 53.6333 76.053 53.2169 74.3945C53.4561 73.4993 55.6599 72.6675 55.5714 71.5762C54.9823 71.8169 54.9381 71.2713 54.7193 70.7695C54.8935 70.3545 54.9585 69.8742 54.6959 69.1978C55.3288 69.1317 55.503 68.7168 55.2623 68.1277C54.5859 68.3903 54.5428 68.9579 54.3233 67.7139C54.5628 67.1898 55.1304 67.2329 55.2623 68.1277L55.6115 68.04C55.2169 66.4688 56.0018 65.5294 55.4981 63.8928C56.8082 64.3062 57.57 62.1662 56.5429 61.0322C56.4556 61.0541 56.2372 60.9234 56.4771 60.7703L56.5429 61.0322C56.7828 60.8791 57.0009 60.6388 57.0005 60.2677C55.3847 59.7455 56.7798 57.9105 55.9276 57.1037C56.9963 56.1859 57.2793 55.4652 56.9725 54.2432C56.9717 53.501 56.3391 53.9382 56.2295 53.5018C57.3866 53.6752 56.1411 52.4105 56.8613 52.3224C57.0794 52.0821 57.1663 51.6891 57.1659 51.318C56.7075 51.3403 55.9231 52.6508 55.6816 51.3195C55.6597 51.2322 55.725 51.123 55.7904 51.0138L55.965 50.97L55.9431 50.8827C56.3357 50.5985 56.9467 50.4451 57.2082 50.0083C57.4901 48.1744 58.0558 46.3621 58.8618 44.7678C58.3573 42.389 60.5165 40.6406 59.9028 38.1964ZM44.5164 104.417C44.756 103.893 44.4276 102.955 45.3444 102.91C44.9287 101.994 45.3213 101.71 45.146 101.011C46.4119 100.879 44.2285 100.314 45.8654 100.181C45.7339 99.6574 45.3628 99.6578 45.2313 99.1341C45.6678 99.0245 45.4928 98.6972 45.6017 98.3915C45.7759 97.9766 45.6874 96.8853 45.8182 96.6669L46.08 96.6011C45.9281 97.4744 46.7149 98.3904 46.6503 99.2417C46.5415 99.5474 46.0835 99.9408 45.9966 100.334C45.8877 100.64 46.6084 100.923 46.5868 101.206C46.5214 101.316 46.1069 101.512 46.0415 101.622C46.0419 101.993 46.5003 101.97 46.3484 102.844C46.3269 103.127 45.6285 103.303 46.0438 103.848C46.0661 104.306 46.6998 104.983 46.9625 105.659C46.8756 106.052 46.7887 106.445 46.7671 106.729C46.7017 106.838 46.2872 107.035 46.2218 107.144C46.0261 107.843 46.0926 108.847 45.875 109.458C45.1101 108.629 45.1294 106.119 45.7616 105.311C45.652 104.874 44.8875 104.417 44.5164 104.417ZM50.5322 95.8544C50.8368 94.85 49.5051 94.7204 49.1767 93.7821L49.264 93.7602C49.1544 93.3237 49.0668 92.9746 49.0664 92.6035C49.8955 92.2097 50.6365 91.0957 50.8976 90.2878L50.9849 90.2659C51.2041 91.1388 50.6157 92.1217 50.5945 92.7765C50.3546 92.9296 49.7001 93.2795 49.7443 93.8252C50.1815 94.4577 51.8635 95.6129 50.5322 95.8544ZM49.9942 103.32C49.2739 103.408 49.5347 102.229 49.5124 101.771C49.5778 101.662 49.6212 101.465 49.6866 101.356C49.73 101.159 49.6862 100.985 49.7077 100.701C49.8604 100.57 50.1003 100.417 50.2311 100.199C50.4057 100.155 50.5583 100.024 50.7329 99.9797C50.5137 99.1068 50.4911 98.2773 51.2774 98.8222C50.6241 100.285 50.2107 101.596 49.9942 103.32ZM50.1415 97.9939C50.1631 97.7102 49.5516 97.4925 49.5513 97.1214C49.8127 96.6846 50.4457 96.6185 51.2751 96.5958C51.8877 97.9267 51.1463 98.6696 50.1854 98.1685L50.1415 97.9939ZM51.6575 86.2925C51.549 86.9692 51.5286 88.3663 50.7211 88.4762C50.7207 88.1052 50.655 87.8433 50.6546 87.4722C50.6327 87.3849 50.698 87.2757 50.6761 87.1884C50.6542 87.1011 50.6542 87.1011 50.545 87.0358C50.5012 86.8612 50.5227 86.5774 50.4789 86.4028C50.8719 86.4897 51.1556 86.5113 51.6575 86.2925ZM56.383 54.1128C55.7504 54.55 56.2099 55.641 54.9221 55.6859C55.1182 55.3583 55.1178 54.9872 54.899 54.4854C55.6627 54.2009 55.7058 53.6333 56.383 54.1128ZM48.3616 86.4705C49.1038 86.4697 48.9088 87.9106 48.1447 87.824C47.5544 86.9515 48.3839 86.9288 48.3616 86.4705ZM50.1935 84.897C50.0847 85.2027 49.954 85.4211 49.8451 85.7268C49.7359 85.6614 49.5175 85.5307 49.2772 85.3126C49.7786 84.7228 49.844 84.6135 50.2151 84.6132C50.237 84.7005 50.1716 84.8097 50.1935 84.897ZM10.6188 84.7193L10.4654 84.1083L11.251 83.911L11.4044 84.5221L10.6188 84.7193ZM48.9254 82.8028L49.0788 83.4138L48.4678 83.5672L48.3143 82.9562L48.9254 82.8028ZM55.531 74.7414L55.3776 74.1303L54.8539 74.2618L55.0073 74.8729L55.531 74.7414ZM26.3783 84.2884L26.2249 83.6774L26.7486 83.5459L26.9021 84.1569L26.3783 84.2884ZM51.6952 80.5298C51.5206 80.5736 51.2365 80.181 51.2799 79.9845C51.4533 78.8274 51.9352 80.3767 51.6952 80.5298ZM54.7776 85.045C54.7772 84.674 54.7769 84.3029 54.2093 84.2598C54.297 84.609 54.1881 84.9147 54.7776 85.045ZM50.7434 88.9346C50.7653 89.0219 50.678 89.0438 50.678 89.0438L50.7438 89.3057C50.6565 89.3276 50.6784 89.4149 50.6784 89.4149C50.613 89.5241 50.5257 89.546 50.4604 89.6552C50.4385 89.5679 50.5038 89.4587 50.46 89.2842C50.3727 89.3061 50.0235 89.3937 50.0451 89.11C50.1105 89.0007 50.5907 89.0657 50.6561 88.9565C50.6561 88.9565 50.6342 88.8692 50.7215 88.8473L50.7434 88.9346ZM46.2237 66.4998C46.4422 66.6306 46.1587 66.9801 46.0495 66.9148C45.8311 66.784 46.1145 66.4345 46.2237 66.4998ZM2.95898 107.8C2.74056 107.669 3.02397 107.319 3.13318 107.385C3.35159 107.515 3.06819 107.865 2.95898 107.8ZM52.1873 92.0982C52.2965 92.1636 52.5799 91.8141 52.4488 91.6614C52.3396 91.596 52.0562 91.9456 52.1873 92.0982ZM54.0259 75.7688C54.0698 75.9434 54.2882 76.0742 54.2878 75.7031C54.244 75.5285 53.9383 75.4197 54.0259 75.7688ZM48.6212 84.1782C48.8396 84.309 48.5343 84.5712 48.4251 84.5059C48.2286 84.4624 48.512 84.1129 48.6212 84.1782ZM52.8391 89.1507C52.9483 89.2161 53.2537 88.9539 53.0352 88.8231C52.926 88.7577 52.6426 89.1073 52.8391 89.1507ZM54.1239 86.1371C54.2331 86.2025 54.5384 85.9402 54.4073 85.7876C54.2981 85.7222 54.0147 86.0718 54.1239 86.1371ZM25.5859 77.8062C25.5639 77.7189 25.1932 78.0904 25.3897 78.1339C25.499 78.1992 25.8043 77.937 25.5859 77.8062ZM49.999 86.7089C49.977 86.6216 49.8678 86.5562 49.9113 86.3597C49.9113 86.3597 49.9986 86.3378 50.0205 86.4251C50.0424 86.5124 49.977 86.6216 49.999 86.7089ZM81.5874 87.0359C81.5852 84.8095 81.4521 82.8014 81.5813 81.0987C81.5806 80.3565 81.471 79.9201 81.4272 79.7455C81.4487 79.4617 81.8198 79.4613 81.7979 79.374C81.9055 77.9551 81.7294 76.5146 81.9244 75.0737C82.1413 73.7202 82.4674 72.432 82.597 71.1003C82.7478 69.1138 83.0289 66.5378 82.8312 65.3811C83.7261 65.2492 83.6599 64.6162 83.6811 63.9614C83.6372 63.7868 83.5934 63.6122 83.5715 63.5249C81.5404 62.4574 79.1166 61.6741 76.4537 61.786C76.4979 62.3316 76.1068 64.1001 76.0638 64.6677C76.0641 65.0388 75.8027 65.4756 75.9776 65.8028C76.1745 66.2174 75.9126 66.2831 75.8257 66.6761C75.8042 66.9599 75.8265 67.4183 75.8049 67.7021C75.7399 68.1824 75.675 68.6626 75.588 69.0556C75.4358 69.5578 75.4365 70.3 75.175 70.7368C74.7828 71.3921 73.9345 74.2961 73.2381 76.3269C72.9335 77.3313 72.5636 78.4449 72.0844 79.4931C71.6707 80.4322 71.235 81.2839 70.7993 82.1357C70.0586 83.6207 69.2742 84.9312 68.5332 86.0452C67.7268 87.2685 68.0109 87.6611 66.4616 88.1429C66.2413 86.1567 66.3932 85.2835 66.5659 83.3842C66.6955 82.0526 66.9343 80.7863 67.1731 79.52C67.3465 78.3629 66.9089 77.3593 67.1697 76.1803C67.3 75.5908 67.3212 74.9359 67.5827 74.4991C67.7134 74.2807 67.8219 73.6039 67.9088 73.2109C68.0826 72.4249 68.1038 71.77 68.2557 70.8967C68.4295 70.1108 68.3849 69.194 68.5587 68.408C68.841 66.9452 69.0359 65.5044 69.209 63.9762C68.4226 63.4313 65.4751 62.7795 64.1658 63.1083C63.4236 63.109 63.2044 62.2361 62.3096 62.368C60.6987 66.6698 61.4905 72.4098 59.9888 76.777C60.2953 77.628 59.8592 78.1087 60.2968 79.1123C59.4896 79.5934 60.0584 80.7497 59.9718 81.5138C59.9291 82.4524 59.69 83.3476 59.7346 84.2644C59.8022 86.3816 60.7209 88.1924 61.4215 90.2436C63.0161 91.4207 64.8723 92.1609 67.1861 92.1367C67.9282 92.1359 69.1726 92.2875 69.7609 91.3046C70.1093 90.4748 70.5677 90.4525 70.938 89.7099C71.4391 88.749 71.9186 88.0718 72.4197 87.1108C72.7027 86.3902 73.2253 85.1455 73.5302 84.5121C73.8348 83.5077 74.5974 82.1099 74.6639 83.114C75.0376 85.7111 76.3277 87.8926 76.6127 89.0274C78.1197 89.8553 79.8239 91.4689 82.0281 91.0082C83.2932 90.1338 84.4926 88.9975 85.1683 87.9927C85.4517 87.6432 85.6043 87.512 85.8877 87.1625C87.0652 85.9389 87.8051 83.7117 88.1742 81.8559C85.8832 82.7095 84.5553 86.2907 81.5874 87.0359ZM98.5677 73.6785C98.5027 74.1588 98.3054 73.3732 97.9124 73.2863C97.9986 72.1512 96.908 72.9818 96.5366 72.6111C95.1818 71.2809 93.3253 70.1696 92.93 67.8562C92.8197 66.6776 93.5165 65.0179 93.7122 64.3192C93.8645 63.817 93.7983 63.1841 94.4532 63.2052C95.3484 63.4444 93.8652 64.5592 94.8908 64.2089C96.5705 63.1376 98.4686 62.197 98.9469 60.4066C97.3077 58.3128 94.4698 58.0974 91.6319 57.882C90.3652 57.2722 89.7315 56.5961 88.0949 57.0999C88.5333 58.8457 87.2032 60.2004 86.9428 61.7505C86.7905 62.2527 87.2497 62.9725 87.1193 63.562C87.0762 64.1296 86.5306 64.1738 86.7059 64.8721C87.0343 65.8104 87.1008 66.8144 87.3854 67.5781C88.8077 71.0255 91.7118 71.8739 93.2426 74.6445C88.1374 77.2254 84.0805 80.2856 81.6183 84.5228L81.6402 84.61C81.5098 85.1995 81.2922 85.811 81.0965 86.5097C81.1618 86.4005 81.3145 86.2693 81.3799 86.1601C81.8378 85.7667 81.9463 85.09 82.2516 84.8277C83.5814 83.1019 84.9999 82.8385 86.8549 82.4655C87.5317 82.574 86.5504 83.4699 87.5106 83.2288C88.515 83.5334 89.4321 83.8599 90.3919 83.2477C90.9603 84.0329 92.3131 83.5077 92.7941 84.3148C93.7978 83.8772 95.0641 84.116 96.4826 83.8526C99.036 83.3043 98.9041 82.4095 101.108 81.5778C103.723 77.2094 100.273 76.4053 98.5677 73.6785ZM115.493 76.6666C114.359 77.6937 112.701 78.4812 111.064 78.985C110.628 79.0946 109.996 80.2739 109.406 79.4014C109.711 79.1392 110.235 79.0077 110.213 78.5493C109.71 78.397 109.208 78.2447 109.535 77.6987C110.211 76.6939 110.515 75.3184 110.841 74.0302C110.448 73.5722 110.1 74.7731 109.858 73.8129C110.862 73.0043 111.079 71.6507 111.863 70.7113C111.272 69.0966 112.712 67.8072 111.772 66.6513C113.582 64.9905 112.334 61.4993 113.052 59.1847C112.485 59.1417 112.658 57.9846 112.352 57.5047C112.919 57.1767 113.29 56.8052 113.508 56.1938C112.983 55.9542 112.416 55.9112 111.565 56.2176C109.818 55.9138 108.529 54.8456 106.63 54.6729C107.046 55.5893 106.587 55.6116 105.911 55.5031C105.803 56.9221 105.106 58.2106 105.063 59.5204C104.998 60.0007 105.457 59.9784 105.479 60.4367C105.502 61.2662 105.066 62.1179 104.696 62.8605C105.176 63.2965 104.544 64.1048 104.217 64.6509C104 65.2623 104.415 65.8076 103.848 66.1356C103.368 66.4417 103.15 67.0531 102.889 67.4899C102.976 67.8391 103.064 68.1882 103.261 68.6028C102.653 71.7248 102.766 75.1299 104.472 78.9699C103.927 79.0141 103.599 79.1891 103.403 79.5167C103.84 80.1493 104.06 81.0222 104.649 81.5236C105.261 82.1124 105.283 82.1997 106.528 82.7223C108.166 83.3318 109.28 84.4439 110.284 84.3773C113.819 83.6752 115.454 80.945 116.281 79.0669C116.848 77.9968 117.83 77.4719 117.937 76.0529C118.024 75.6599 118.373 74.8301 118.569 74.5025C118.786 73.8911 119.463 73.6284 119.353 72.8209C117.781 73.2154 117.02 75.3554 115.493 76.6666ZM112.006 39.4968C110.479 40.4369 105.551 45.2006 107.407 46.3119C109.766 47.9466 109.308 48.34 112.91 47.8997C113.498 47.2879 115.982 42.3958 114.407 39.0796C114.078 38.1413 112.225 40.3697 112.006 39.4968ZM136.199 57.1773C137.833 54.4471 140.429 52.9601 142.5 50.4914C142.194 50.0115 142.718 49.88 142.39 49.3128C143.041 45.6232 148.21 41.4487 139.268 49.0759L138.004 50.3214C136.912 50.0388 134.668 54.4067 133.751 54.4513C132.291 56.0244 129.717 58.3409 128.256 59.1719C128.21 57.513 129.925 48.0814 129.355 46.1829C129.835 45.8768 129.682 45.2658 129.812 44.6763C130.095 43.2135 130.05 41.9257 130.004 40.2668C130.003 39.5247 130.22 37.8 130.023 37.3855C130.021 35.5301 130.647 28.4134 130.951 26.6669C133.024 26.0535 126.387 24.7507 124.442 23.2902C124.443 23.6613 124.356 24.0542 123.832 24.1858C124.139 25.0367 123.703 25.5174 124.293 26.3899C123.643 31.1928 122.06 41.8903 121.497 46.3001C121.324 47.8283 120.693 49.3787 121.175 50.9281C120.891 51.2776 119.845 52.2828 120.696 52.7185C120.609 52.3693 121.242 52.3032 121.395 52.5431C121.548 53.1542 120.85 53.7006 121.615 54.1582C121.222 54.4424 120.633 54.6831 120.699 55.316C120.961 55.2503 121.245 55.2718 121.42 55.599L120.721 55.7744C121.443 56.7996 120.963 57.4767 121.052 58.5681C119.154 59.5086 120.684 61.5371 119.55 62.5642C119.463 63.3282 120.292 62.5634 120.292 63.3056C120.446 63.9166 119.638 64.0266 119.377 64.4634C119.661 64.4849 119.792 64.6376 119.923 64.7903C119.181 64.791 119.269 65.5113 119.225 65.7078C119.161 66.5591 118.9 67.367 119.01 68.1746C118.442 68.5026 119.818 68.4357 119.316 69.0256C118.945 69.397 119.862 69.7235 119.492 70.095C119.23 70.5318 119.296 71.1647 119.21 71.5577C118.948 72.3657 119.234 74.2426 118.886 75.0724C118.821 75.9238 118.8 76.5787 118.954 77.5608C120.396 79.2401 120.832 78.3883 123.364 78.4948C123.996 77.3155 124.322 76.3984 124.321 74.914C124.691 74.1715 125.542 73.865 125.497 72.9483C125.41 72.5991 124.93 72.9052 124.798 72.3815C126.174 72.3146 124.492 71.5305 125.932 71.3544C125.451 70.1762 126.717 69.6728 125.668 68.8226C127.021 68.2973 126.474 66.8572 127.28 66.0051C126.233 66.2681 127.498 65.3937 127.498 65.0226C130.6 67.3987 134.751 71.7382 138.727 74.2662C140.977 75.8355 143.86 77.3387 147.459 75.4141C147.175 74.6505 148.201 74.6712 147.96 74.0821C147.043 74.1267 147 74.6943 145.996 74.7608C143.352 71.9913 140.686 69.1346 137.496 66.4093C136.054 65.1011 133.433 63.1611 132.885 60.6078C133.298 59.2976 134.367 58.7508 135.064 57.4623L136.199 57.1773ZM122.345 63.7182C122.301 63.5436 122.454 63.4125 122.41 63.2379L122.846 63.1283C123.13 63.5209 122.694 63.6305 122.345 63.7182ZM170.208 47.0605C170.36 46.9294 170.6 46.7763 170.644 46.5798C170.622 46.4925 170.84 46.2522 170.862 45.9684C170.425 46.078 169.858 46.0349 169.508 46.1226C164.86 46.8259 161.085 48.0521 156.96 49.3661C156.982 48.7112 156.414 49.0392 156.305 48.6027L157.178 48.3836C156.87 46.4193 157.044 45.6333 157.785 44.1483C157.762 43.6899 157.478 43.6684 157.391 43.3192C158.417 43.34 157.39 42.577 157.455 42.0967C157.52 41.9875 158.022 41.7687 158.088 41.6595C158.175 41.2665 157.825 40.612 157.868 40.0445C157.976 39.3677 158.238 38.9308 158.346 38.2541C158.432 37.1189 159.194 35.35 158.473 34.6959C158.909 34.2153 159.389 33.9092 158.952 32.9055L159.563 32.7521C159.191 31.6392 159.888 30.7217 160.04 30.2195C160.149 29.9138 159.974 29.5866 160.083 29.2809C160.213 28.6914 160.344 28.1019 160.474 27.5124C160.91 26.2896 161.999 24.7168 161.344 23.9535C162.608 22.708 162.781 20.4377 164.483 19.8247C164.329 19.2137 165.028 19.0384 165.071 18.4708C166.403 18.9715 167.013 18.0759 168.345 18.2055C169.938 18.2693 171.206 19.6214 172.253 19.3584C172.864 19.2049 173.06 18.5062 173.649 18.2655C172.796 16.7166 170.222 17.9198 169.521 16.2397L168.387 16.5247C166.77 15.2603 163.999 16.049 162.077 15.4179C161.902 14.7196 161.247 15.0695 161.028 14.5677C159.785 15.1583 159.653 13.8924 158.736 13.937C156.206 16.428 154.769 19.5728 153.222 22.6521L153.594 23.765C152.767 25.272 152.812 26.9309 152.399 28.6121C151.964 30.206 151.158 31.8003 151.116 33.4811C151.094 33.3938 151.706 33.6115 151.749 33.7861C151.793 33.9606 151.357 34.4413 151.27 34.8343C151.227 35.4019 152.036 36.7762 150.879 36.6028C150.835 36.4282 150.639 36.3848 150.705 36.6466C151.01 36.7555 151.294 37.1481 151.535 37.3661C150.75 37.9344 150.62 39.2661 151.101 40.0732C149.726 40.5112 150.951 42.4308 150.122 43.1957C150.144 43.6541 150.515 43.6537 150.69 43.9809C149.884 45.2041 149.275 47.584 150.28 48.6308C149.058 48.9376 150.303 49.4602 149.539 49.7448C150.478 49.7874 149.868 50.683 149.846 51.3379C146.748 52.3015 145.613 52.2154 142.078 54.0307C141.751 54.2057 141.446 54.839 141.206 54.9921C141.119 55.014 141.141 55.1013 141.141 55.1013C141.315 55.0575 141.447 55.2101 141.556 55.6466C145.988 55.9258 145.025 53.9404 149.217 54.3727C148.956 55.5517 149.132 56.6211 149.853 58.0173C149.222 59.9389 150.164 62.5791 148.354 64.611C149.206 65.0467 148.181 65.7681 148.836 66.1603C148.77 65.8984 149.206 65.7888 149.272 66.0507C149.098 66.8367 149.23 67.3604 148.489 68.1034C149.079 68.9759 148.599 68.9109 148.599 69.282C148.577 69.5658 149.036 69.5435 148.949 69.9365C148.993 70.111 148.578 69.9368 148.643 70.1987C148.643 70.1987 149.102 70.1764 149.146 70.351C149.299 70.962 149.06 72.2283 148.34 72.6874C148.909 73.8438 148.189 74.3029 148.037 75.1762C148.627 75.6776 148.934 76.5286 149.262 77.4669C148.76 77.6857 148.368 77.9698 148.062 78.2321C148.347 79.3669 148.195 80.2402 148.131 81.0915C148.48 81.0039 148.807 80.8289 148.873 81.0908C147.826 81.7249 148.613 83.383 148.112 83.9729C148.024 83.6237 147.893 83.1 147.609 83.0784C147.741 83.9732 147.61 84.1917 148.265 84.5839L147.654 84.7373C148.179 85.7191 147.591 87.073 147.636 88.3608C147.898 88.2951 148.16 88.2293 148.27 88.6658C147.835 91.0018 147.359 94.2766 148.256 96.7422C148.08 94.9307 148.733 93.4675 148.644 91.634C149.494 90.5854 149.754 89.0353 149.534 87.4203C149.927 87.1361 150.101 86.7212 150.406 86.4589C149.707 85.521 150.339 84.3417 151.321 83.8168C150.336 81.7441 152.517 80.0829 151.052 77.2031C151.902 76.5256 151.333 74.9982 152.817 74.6256C152.358 73.9057 153.231 73.6865 153.47 72.7913C152.553 72.8359 152.795 73.7961 152.139 73.4039C152.357 72.4214 152.203 71.8103 152.879 70.8056C152.53 70.8932 152.268 70.959 152.245 70.5006C152.922 70.238 152.834 69.5177 153.095 69.0809C153.226 68.8625 154.012 69.0363 153.597 68.491C153.356 67.5308 152.833 69.1467 152.57 68.0992C153.05 67.422 153.529 66.7448 154.14 66.2203C153.856 66.1988 153.551 66.09 153.332 65.9592C153.703 65.5878 154.662 64.6045 153.811 64.1688C153.789 64.4526 152.72 64.9994 152.829 64.6937L152.566 64.0173C153.57 63.9508 153.57 63.9508 154.312 63.5789C154.224 62.8587 154.812 61.8758 154.004 61.2436C155.008 60.806 154.242 59.2352 155.42 58.7538C155.486 59.0156 155.552 59.2775 155.966 59.0806C155.201 57.5098 156.226 57.1595 156.399 55.6313C156.138 55.6971 155.876 55.7628 155.766 55.3264C156.464 54.78 156.048 53.4925 156.833 52.9242C159.713 51.8298 163.51 50.3198 165.779 49.0077C167.72 47.8707 167.676 47.325 170.208 47.0605ZM155.331 56.9203C154.48 57.2268 154.413 55.4806 154.522 55.1749L155.22 54.9995C155.57 55.2829 155.68 56.4615 155.331 56.9203ZM148.828 80.174C148.784 79.6284 148.5 78.8647 149.111 78.7112C149.264 79.3223 149.527 79.9987 148.828 80.174ZM151.04 65.3286C150.624 64.7833 151.476 64.8479 151.803 64.6729C151.912 65.1094 151.585 65.2843 151.04 65.3286ZM151.61 68.3403C151.632 68.0565 151.806 68.0126 151.741 67.7508L152.177 67.6412C152.396 68.143 151.937 68.1653 151.61 68.3403ZM155.203 59.7363L155.335 60.26L155.771 60.1504L155.639 59.6267L155.203 59.7363ZM166.717 62.8769C168.356 64.9707 170.998 65.8848 173.618 66.3405C175.67 66.7531 176.609 66.7958 178.485 66.139C180.515 65.3511 181.649 64.3241 183.001 63.0566C183.895 62.1826 183.807 62.2045 184.418 61.3089C186.314 58.513 188.69 55.0398 187.812 51.1771C187.07 51.1779 186.632 49.4321 186.632 49.061C185.977 49.0399 185.583 48.5819 185.212 48.2112C183.922 46.7718 182.437 45.6601 180.625 45.0944C179.619 43.6766 177.741 42.8491 176.322 42.3703C176.016 42.2615 175.754 41.9562 175.535 41.8254C174.924 41.6078 174.029 41.7397 173.679 41.0852C174.356 41.1936 174.377 40.5388 174.704 40.3638C175.861 39.7951 177.455 40.6011 177.912 39.0945C175.75 37.8743 173.13 37.4186 170.815 36.3296C170.27 36.7449 170.358 37.4651 170.031 38.0112C168.809 38.318 169.137 39.6274 168.156 40.1523C168.484 40.7194 168.025 40.7417 168.266 41.3309C166.696 43.2097 166.634 45.9165 165.392 47.9914C165.983 49.6061 164.717 50.4805 164.609 51.5284C164.545 52.3798 165.092 53.8199 165.006 54.955C165.007 55.6972 164.658 56.1559 164.702 56.7016C165.032 58.7531 166.539 60.3232 167.305 62.2651C166.956 62.3528 166.498 62.3751 166.717 62.8769ZM170.349 50.7367C170.829 49.6884 170.87 48.0076 171.524 46.9155C174.1 47.1967 175.565 49.3343 177.683 50.3799C177.574 50.6856 178.23 51.4489 177.706 51.5804C179.104 52.343 180.088 53.6735 181.159 54.9821C181.334 55.6804 181.16 56.0953 180.615 57.2528C179.635 59.262 177.151 63.0408 174.313 63.5676C172.895 63.831 171.083 63.2653 170.23 61.7164C169.683 60.6474 170.424 59.1623 169.332 58.8797C169.353 58.5959 169.484 58.3774 169.921 58.2679C168.086 56.8727 170.332 55.1023 169.238 52.9643C170.374 53.0504 169.347 52.2875 169.456 51.9818C169.499 51.7853 169.979 51.4792 170.023 51.2827C170.088 51.1735 169.848 50.9555 169.913 50.8463C170 50.8244 170.371 50.824 170.349 50.7367ZM204.833 49.5017C205.007 49.0868 205.29 48.7373 205.181 48.3008C205.136 47.7552 206.031 47.6233 206.184 47.1211C206.488 46.1167 206.052 46.5973 206.466 45.6583C206.836 44.9157 208.034 42.2951 208.36 40.6359C208.512 39.7626 206.528 42.2094 206.179 42.6681L206.114 42.7773C204.021 45.5298 204.807 45.3326 202.561 47.8451C201.405 49.156 200.446 50.1393 199.334 51.2536C198.832 51.8435 198.221 51.9969 197.785 52.4776C197.349 52.9583 195.801 54.5533 195.168 54.6195C195.428 52.6983 195.361 50.9521 195.621 49.031C194.835 48.8572 194.639 49.9269 194.224 49.3817C193.852 48.6399 195.097 48.7914 195.511 48.5945C195.401 47.787 196.296 47.6551 195.989 46.8041C195.335 46.783 195.161 47.94 194.724 47.3075L194.57 46.6964C195.334 46.4119 196.011 46.1492 196.141 45.5598C194.831 45.1464 197.906 42.6111 196.29 41.7178C196.682 41.4337 196.857 41.0187 197.249 40.7346C196.351 37.1557 198.553 35.2107 197.873 31.7625C198.222 31.6749 198.375 31.5437 198.506 31.3253C198.352 30.7143 197.936 29.7979 198.132 29.0992C198.198 28.99 198.569 28.9896 198.656 28.9677C198.656 28.5966 198.284 28.2259 198.284 27.8549C198.371 27.4619 198.72 27.3742 198.807 26.9812C199.046 25.7149 198.673 24.231 198.715 22.9212C198.737 22.6375 199.217 22.3314 199.26 22.1349C199.347 21.3708 199.018 20.4325 199.127 19.7557C199.17 19.1882 199.889 18.3579 199.234 17.5946C199.299 17.4854 199.67 17.485 199.67 17.485C199.909 15.8477 199.557 14.08 199.403 12.7268C199.27 10.3476 200.187 10.6741 199.486 8.25189C199.813 7.70585 199.943 7.11635 200.27 6.57031C199.745 5.58858 198.567 5.69893 197.976 4.82641C195.314 5.30936 194.942 4.19651 192.889 3.78388C192.323 4.85404 192.979 5.98844 193.067 7.07976C193.068 8.193 192.743 9.85227 192.7 10.4199C192.57 12.1226 192.875 11.1182 192.767 12.5371C192.724 13.1047 192.223 13.6946 192.158 14.1749C192.049 14.8516 192.508 15.5715 191.985 16.0741C191.986 16.8163 192.4 16.6194 192.445 17.165C191.751 22.1644 191.298 27.3818 190.386 32.2505C190.91 32.1189 190.715 33.1887 190.977 33.4941C190.149 35.001 189.126 37.2067 190.219 39.7159C189.674 39.7601 189.608 39.8693 189.631 40.3277C189.609 40.6115 189.304 40.5026 189.238 40.6118C189.129 40.9175 189.501 41.2882 189.479 41.572C189.458 41.8558 189 42.2492 188.934 42.3584C188.913 43.0133 189.285 43.7551 189.22 44.2353C189.569 44.1477 189.984 43.9508 190.137 44.1907C189.744 44.4749 189.963 44.9767 189.134 44.9994C188.635 48.1868 188.269 53.0113 189.997 56.9386C189.343 57.2885 190.828 58.0291 191.156 58.9674C193.34 60.2748 193.188 61.1481 196.724 60.446C199.558 57.3217 200.21 54.3742 203.285 51.4679C203.654 49.9832 203.939 50.7469 204.833 49.5017ZM196.133 37.396C196.329 37.8105 196.068 37.8763 196.046 38.1601C195.719 38.335 195.544 38.0078 195.129 38.2047C195.216 37.8117 195.609 37.5275 196.133 37.396ZM195.787 40.8234C195.852 40.3431 196.004 39.8409 196.637 40.1458C196.66 40.6042 196.332 40.7792 195.787 40.8234ZM191.933 50.2353C191.584 50.323 191.168 49.0355 191.954 49.2094C192.172 49.7112 191.933 49.8642 191.933 50.2353ZM196.35 36.4135C196.351 37.1557 196.066 36.7631 195.543 36.8946C195.411 36.3708 196.022 36.2174 196.35 36.4135ZM226.729 34.4461C228.363 31.7159 230.959 30.2289 233.03 27.7602C232.724 27.2803 233.248 27.1488 232.92 26.5816C233.571 22.8919 238.74 18.7174 229.798 26.3447L228.533 27.5902C227.442 27.3075 225.198 31.6755 224.281 31.7201C222.82 33.2932 220.247 35.6096 218.785 36.4406C218.74 34.7817 220.455 25.3502 219.885 23.4517C220.365 23.1456 220.212 22.5346 220.342 21.9451C220.624 20.4823 220.579 19.1945 220.534 17.5356C220.533 16.7934 220.75 15.0688 220.553 14.6542C220.551 12.7988 221.177 5.68218 221.48 3.93561C223.553 3.3223 216.916 2.01942 214.972 0.55893C214.972 0.93001 214.885 1.323 214.362 1.45451C214.668 2.3055 214.232 2.78617 214.822 3.65869C214.173 8.46157 212.59 19.159 212.027 23.5689C211.854 25.097 211.223 26.6475 211.704 28.1968C211.421 28.5464 210.374 29.5515 211.226 29.9872C211.138 29.6381 211.771 29.5719 211.924 29.8119C212.078 30.4229 211.38 30.9693 212.144 31.4269C211.752 31.7111 211.163 31.9518 211.229 32.5848C211.491 32.519 211.774 32.5406 211.949 32.8678L211.251 33.0431C211.972 34.0683 211.493 34.7455 211.581 35.8368C209.683 36.7774 211.213 38.8058 210.079 39.8329C209.993 40.597 210.821 39.8322 210.822 40.5743C210.976 41.1853 210.168 41.2953 209.907 41.7322C210.19 41.7537 210.321 41.9064 210.453 42.059C209.71 42.0598 209.798 42.78 209.755 42.9765C209.69 43.8279 209.429 44.6358 209.539 45.4433C208.972 45.7713 210.347 45.7044 209.846 46.2943C209.475 46.6658 210.392 46.9923 210.021 47.3637C209.76 47.8005 209.826 48.4335 209.739 48.8265C209.478 49.6344 209.764 51.5113 209.415 52.3412C209.351 53.1925 209.33 53.8474 209.483 54.8295C210.926 56.5088 211.361 55.6571 213.894 55.7636C214.525 54.5842 214.852 53.6671 214.85 52.1828C215.221 51.4403 216.072 51.1338 216.027 50.217C215.939 49.8679 215.46 50.174 215.328 49.6502C216.703 49.5833 215.022 48.7992 216.462 48.6231C215.981 47.4449 217.246 46.9416 216.198 46.0913C217.55 45.5661 217.003 44.126 217.81 43.2738C216.762 43.5369 218.028 42.6624 218.027 42.2913C221.129 44.6674 225.281 49.007 229.256 51.535C231.506 53.1043 234.389 54.6075 237.989 52.6829C237.704 51.9192 238.73 51.94 238.49 51.3509C237.573 51.3955 237.53 51.963 236.526 52.0296C233.882 49.2601 231.216 46.4033 228.026 43.6781C226.584 42.3699 223.963 40.4298 223.414 37.8765C223.828 36.5664 224.897 36.0196 225.594 34.731L226.729 34.4461ZM212.874 40.9869C212.831 40.8124 212.983 40.6812 212.939 40.5067L213.376 40.3971C213.66 40.7897 213.224 40.8993 212.874 40.9869Z" fill="black"/>
</svg>
