<svg width="1500" height="678" viewBox="0 0 1500 678" fill="none" xmlns="http://www.w3.org/2000/svg">
<g clip-path="url(#clip0)">
<path d="M-0.140625 -476H1499.86V678H476.086C638.976 585.836 772.214 466.231 772.279 352.614C772.41 124.545 235.869 5.93213 -0.140625 2.97485V-476Z" fill="#FFF7DF"/>
<path d="M-269 752.226C-198.597 805.894 -110.637 837.793 -15.2049 837.847C216.129 837.98 766.074 582.399 766.206 351.544C766.292 203.072 538.941 100.988 315.125 47C540.553 95.5857 771.099 192.341 774.535 341.046C779.869 571.84 236.13 840.371 4.8577 845.716C-98.7562 848.11 -194.449 812.748 -269 752.226Z" fill="url(#paint0_linear)"/>
</g>
<defs>
<linearGradient id="paint0_linear" x1="761.008" y1="66.3187" x2="-347.966" y2="493.323" gradientUnits="userSpaceOnUse">
<stop stop-color="#FFC000"/>
<stop offset="1" stop-color="#FF8A00"/>
</linearGradient>
<clipPath id="clip0">
<rect width="1500" height="678" fill="white"/>
</clipPath>
</defs>
</svg>
